<svg id="Layer_1" data-name="Layer 1" xmlns="http://www.w3.org/2000/svg" viewBox="0 0 48 48"><defs><style>.cls-1{fill:none;stroke:#000;stroke-linecap:round;stroke-linejoin:round;stroke-width:2px;}</style></defs><title>ahovel spoon</title><path class="cls-1" d="M25.5,25.5l6,6a2.17,2.17,0,0,1-.85,3.6L4,44l8.89-26.66a2.17,2.17,0,0,1,3.6-.85l6,6"/><polyline class="cls-1" points="29 22 23 28 20 25 26 19"/><path class="cls-1" d="M25.87,15.8,37.67,4,44,10.33,32.2,22.13a1.23,1.23,0,0,1-1.74,0l-4.59-4.59A1.23,1.23,0,0,1,25.87,15.8Z"/><rect class="cls-1" x="-622" y="-146" width="680" height="680"/></svg>